<?xml version="1.0" standalone="no"?>
<!DOCTYPE svg PUBLIC "-//W3C//DTD SVG 20010904//EN"
 "http://www.w3.org/TR/2001/REC-SVG-20010904/DTD/svg10.dtd">
<svg version="1.0" xmlns="http://www.w3.org/2000/svg"
 width="1000.000000pt" height="1000.000000pt" viewBox="0 0 1000.000000 1000.000000"
 preserveAspectRatio="xMidYMid meet">

<g transform="translate(0.000000,1000.000000) scale(0.100000,-0.100000)"
fill="#000000" stroke="none">
<path d="M0 5000 l0 -5000 5000 0 5000 0 0 5000 0 5000 -5000 0 -5000 0 0
-5000z m8703 3988 c196 -54 375 -158 518 -301 146 -146 238 -309 301 -532 l23
-80 3 -2990 c1 -1972 -1 -3012 -8 -3056 -37 -243 -164 -487 -342 -654 -160
-150 -337 -243 -560 -292 -79 -17 -233 -18 -3638 -18 l-3555 0 -106 27 c-395
100 -694 372 -819 746 -64 191 -60 -14 -60 3209 0 3232 -4 3010 61 3208 129
389 491 695 894 755 28 4 1657 7 3620 6 l3570 -1 98 -27z"/>
<path d="M1535 8450 c-185 -21 -353 -135 -439 -298 -71 -136 -66 103 -66
-3116 0 -2624 2 -2914 16 -2970 52 -201 208 -360 409 -417 43 -12 569 -14
3555 -14 3379 0 3507 1 3565 18 191 59 338 213 392 408 17 60 18 226 18 2979
0 2827 -1 2917 -19 2985 -26 97 -79 189 -151 260 -70 70 -140 113 -240 147
l-70 23 -3455 1 c-1900 1 -3482 -2 -3515 -6z m353 -615 c80 -19 142 -51 217
-112 57 -46 2139 -2128 2203 -2203 37 -43 86 -139 102 -200 7 -25 12 -85 12
-135 0 -107 -31 -208 -89 -293 -52 -77 -2205 -2231 -2274 -2276 -91 -60 -151
-78 -270 -84 -120 -5 -184 9 -283 61 -170 91 -291 314 -272 503 9 83 45 189
86 250 18 27 430 447 916 934 571 572 884 892 884 905 0 13 -310 330 -873 895
-481 481 -887 893 -904 915 -73 96 -107 200 -108 325 0 152 48 266 159 375
136 134 310 183 494 140z m3496 -25 c147 -50 259 -171 302 -326 13 -49 17
-133 21 -514 4 -334 8 -458 17 -468 9 -9 29 1 92 50 96 74 689 549 854 683
231 188 553 441 608 478 154 103 363 104 519 1 213 -142 270 -439 123 -653
-45 -66 -70 -90 -210 -202 -328 -261 -682 -544 -1025 -820 -77 -61 -192 -153
-255 -204 -133 -106 -144 -118 -135 -142 3 -10 68 -72 143 -138 74 -66 204
-181 286 -256 83 -74 190 -169 237 -210 93 -80 556 -491 759 -674 69 -62 168
-150 220 -196 239 -211 295 -286 321 -433 39 -229 -124 -473 -352 -525 -116
-27 -264 -3 -359 58 -45 28 -241 197 -415 355 -49 45 -164 147 -254 227 -90
79 -199 176 -242 214 -78 69 -383 341 -714 635 -93 82 -174 149 -180 147 -7
-3 -9 -194 -6 -604 3 -534 2 -608 -13 -675 -48 -218 -233 -367 -453 -368 -220
0 -402 140 -457 352 -17 65 -23 375 -36 1753 -5 556 -12 1242 -16 1525 -5 451
-4 523 10 583 22 92 58 161 123 228 125 132 316 178 487 119z m2933 -4785
c225 -76 363 -267 363 -504 0 -115 -25 -197 -90 -294 -80 -119 -212 -204 -350
-226 -93 -15 -3280 -15 -3369 0 -202 34 -374 192 -426 394 -19 75 -19 184 0
258 46 178 198 336 366 381 46 13 297 15 1742 15 l1688 1 76 -25z"/>
</g>
</svg>
